{
  "accessors": [
    {
      "bufferView": 2,
      "componentType": 5126,
      "count": 65532,
      "max": [
        0.6677064299583435,
        0.6533093452453613,
        0.9796344041824341
      ],
      "min": [
        -1.0649672746658325,
        -0.6176562309265137,
        -1.4224202632904053
      ],
      "type": "VEC3"
    },
    {
      "bufferView": 2,
      "byteOffset": 786384,
      "componentType": 5126,
      "count": 65532,
      "max": [
        0.9999810457229614,
        0.999990701675415,
        0.999915361404419
      ],
      "min": [
        -0.9999977350234985,
        -0.9904474020004272,
        -0.9999598264694214
      ],
      "type": "VEC3"
    },
    {
      "bufferView": 3,
      "componentType": 5126,
      "count": 65532,
      "max": [
        0.999932050704956,
        0.9999275803565979,
        0.9999846816062927,
        1.0
      ],
      "min": [
        -0.9999926686286926,
        -0.9999655485153198,
        -0.9999985098838806,
        -1.0
      ],
      "type": "VEC4"
    },
    {
      "bufferView": 1,
      "componentType": 5126,
      "count": 65532,
      "max": [
        0.9954036474227905,
        0.9991360902786255
      ],
      "min": [
        0.004520113114267588,
        2.205371856689453e-05
      ],
      "type": "VEC2"
    },
    {
      "bufferView": 1,
      "byteOffset": 524256,
      "componentType": 5126,
      "count": 65532,
      "max": [
        0.9954036474227905,
        0.9991360902786255
      ],
      "min": [
        0.004520113114267588,
        2.205371856689453e-05
      ],
      "type": "VEC2"
    },
    {
      "bufferView": 1,
      "byteOffset": 1048512,
      "componentType": 5126,
      "count": 65532,
      "max": [
        0.9954036474227905,
        0.9991360902786255
      ],
      "min": [
        0.004520113114267588,
        2.205371856689453e-05
      ],
      "type": "VEC2"
    },
    {
      "bufferView": 0,
      "componentType": 5125,
      "count": 335673,
      "type": "SCALAR"
    },
    {
      "bufferView": 2,
      "byteOffset": 1572768,
      "componentType": 5126,
      "count": 65532,
      "max": [
        0.6557982563972473,
        0.712916910648346,
        0.7672613859176636
      ],
      "min": [
        -1.0119813680648804,
        -0.6038594841957092,
        -1.2399027347564697
      ],
      "type": "VEC3"
    },
    {
      "bufferView": 2,
      "byteOffset": 2359152,
      "componentType": 5126,
      "count": 65532,
      "max": [
        0.9999837875366211,
        0.9999946355819702,
        0.9999822378158569
      ],
      "min": [
        -0.9999803304672241,
        -0.9989298582077026,
        -0.9999675750732422
      ],
      "type": "VEC3"
    },
    {
      "bufferView": 3,
      "byteOffset": 1048512,
      "componentType": 5126,
      "count": 65532,
      "max": [
        0.9999455213546753,
        0.999911367893219,
        0.9999968409538269,
        1.0
      ],
      "min": [
        -0.9999834299087524,
        -0.9999940395355225,
        -0.999951958656311,
        -1.0
      ],
      "type": "VEC4"
    },
    {
      "bufferView": 1,
      "byteOffset": 1572768,
      "componentType": 5126,
      "count": 65532,
      "max": [
        0.9962106943130493,
        0.9999390840530396
      ],
      "min": [
        0.0003658778441604227,
        1.1920928955078125e-07
      ],
      "type": "VEC2"
    },
    {
      "bufferView": 1,
      "byteOffset": 2097024,
      "componentType": 5126,
      "count": 65532,
      "max": [
        0.9962106943130493,
        0.9999390840530396
      ],
      "min": [
        0.0003658778441604227,
        1.1920928955078125e-07
      ],
      "type": "VEC2"
    },
    {
      "bufferView": 1,
      "byteOffset": 2621280,
      "componentType": 5126,
      "count": 65532,
      "max": [
        0.9962106943130493,
        0.9999390840530396
      ],
      "min": [
        0.0003658778441604227,
        1.1920928955078125e-07
      ],
      "type": "VEC2"
    },
    {
      "bufferView": 0,
      "byteOffset": 1342692,
      "componentType": 5125,
      "count": 358326,
      "type": "SCALAR"
    },
    {
      "bufferView": 2,
      "byteOffset": 3145536,
      "componentType": 5126,
      "count": 65532,
      "max": [
        0.6645519137382507,
        0.692245364189148,
        0.869621992111206
      ],
      "min": [
        -0.8786614537239075,
        -0.6175684332847595,
        -1.2706419229507446
      ],
      "type": "VEC3"
    },
    {
      "bufferView": 2,
      "byteOffset": 3931920,
      "componentType": 5126,
      "count": 65532,
      "max": [
        0.9999455213546753,
        0.9999974966049194,
        0.9999537467956543
      ],
      "min": [
        -0.9999176263809204,
        -0.9999639987945557,
        -0.9999897480010986
      ],
      "type": "VEC3"
    },
    {
      "bufferView": 3,
      "byteOffset": 2097024,
      "componentType": 5126,
      "count": 65532,
      "max": [
        0.9999075531959534,
        0.9999567270278931,
        0.9999983310699463,
        1.0
      ],
      "min": [
        -0.9999953508377075,
        -0.9999926686286926,
        -0.9999845027923584,
        -1.0
      ],
      "type": "VEC4"
    },
    {
      "bufferView": 1,
      "byteOffset": 3145536,
      "componentType": 5126,
      "count": 65532,
      "max": [
        0.996184229850769,
        0.999907910823822
      ],
      "min": [
        5.460891770781018e-05,
        3.8623809814453125e-05
      ],
      "type": "VEC2"
    },
    {
      "bufferView": 1,
      "byteOffset": 3669792,
      "componentType": 5126,
      "count": 65532,
      "max": [
        0.996184229850769,
        0.999907910823822
      ],
      "min": [
        5.460891770781018e-05,
        3.8623809814453125e-05
      ],
      "type": "VEC2"
    },
    {
      "bufferView": 1,
      "byteOffset": 4194048,
      "componentType": 5126,
      "count": 65532,
      "max": [
        0.996184229850769,
        0.999907910823822
      ],
      "min": [
        5.460891770781018e-05,
        3.8623809814453125e-05
      ],
      "type": "VEC2"
    },
    {
      "bufferView": 0,
      "byteOffset": 2775996,
      "componentType": 5125,
      "count": 359607,
      "type": "SCALAR"
    },
    {
      "bufferView": 2,
      "byteOffset": 4718304,
      "componentType": 5126,
      "count": 3008,
      "max": [
        0.6012789011001587,
        0.00315116997808218,
        0.7655694484710693
      ],
      "min": [
        -0.047325752675533295,
        -0.26463115215301514,
        0.051251370459795
      ],
      "type": "VEC3"
    },
    {
      "bufferView": 2,
      "byteOffset": 4754400,
      "componentType": 5126,
      "count": 3008,
      "max": [
        0.9997040629386902,
        0.9996557831764221,
        0.9996201395988464
      ],
      "min": [
        -0.9995848536491394,
        -0.6251121163368225,
        -0.9490095973014832
      ],
      "type": "VEC3"
    },
    {
      "bufferView": 3,
      "byteOffset": 3145536,
      "componentType": 5126,
      "count": 3008,
      "max": [
        0.6266260147094727,
        0.998266339302063,
        0.8542235493659973,
        1.0
      ],
      "min": [
        -0.9999863505363464,
        -0.9839131832122803,
        -0.9975634813308716,
        1.0
      ],
      "type": "VEC4"
    },
    {
      "bufferView": 1,
      "byteOffset": 4718304,
      "componentType": 5126,
      "count": 3008,
      "max": [
        0.9487717151641846,
        0.7726395130157471
      ],
      "min": [
        0.309329092502594,
        0.5118587017059326
      ],
      "type": "VEC2"
    },
    {
      "bufferView": 1,
      "byteOffset": 4742368,
      "componentType": 5126,
      "count": 3008,
      "max": [
        0.9487717151641846,
        0.7726395130157471
      ],
      "min": [
        0.309329092502594,
        0.5118587017059326
      ],
      "type": "VEC2"
    },
    {
      "bufferView": 1,
      "byteOffset": 4766432,
      "componentType": 5126,
      "count": 3008,
      "max": [
        0.9487717151641846,
        0.7726395130157471
      ],
      "min": [
        0.309329092502594,
        0.5118587017059326
      ],
      "type": "VEC2"
    },
    {
      "bufferView": 0,
      "byteOffset": 4214424,
      "componentType": 5125,
      "count": 15765,
      "type": "SCALAR"
    }
  ],
  "asset": {
    "extras": {
      "author": "georgiyhazankin (https://sketchfab.com/georgiyhazankin)",
      "license": "CC-BY-4.0 (http://creativecommons.org/licenses/by/4.0/)",
      "source": "https://sketchfab.com/3d-models/food-garbage-cd091f287a1240f5a44efbe1f3661245",
      "title": "food garbage"
    },
    "generator": "Sketchfab-15.29.0",
    "version": "2.0"
  },
  "bufferViews": [
    {
      "buffer": 0,
      "byteLength": 4277484,
      "name": "floatBufferViews",
      "target": 34963
    },
    {
      "buffer": 0,
      "byteLength": 4790496,
      "byteOffset": 4277484,
      "byteStride": 8,
      "name": "floatBufferViews",
      "target": 34962
    },
    {
      "buffer": 0,
      "byteLength": 4790496,
      "byteOffset": 9067980,
      "byteStride": 12,
      "name": "floatBufferViews",
      "target": 34962
    },
    {
      "buffer": 0,
      "byteLength": 3193664,
      "byteOffset": 13858476,
      "byteStride": 16,
      "name": "floatBufferViews",
      "target": 34962
    }
  ],
  "buffers": [
    {
      "byteLength": 17052140,
      "uri": "scene.bin"
    }
  ],
  "images": [
    {
      "uri": "textures/Material_0_baseColor.jpeg"
    },
    {
      "uri": "textures/Material_0_metallicRoughness.png"
    },
    {
      "uri": "textures/Material_0_normal.jpeg"
    }
  ],
  "materials": [
    {
      "emissiveFactor": [
        1.0,
        1.0,
        1.0
      ],
      "emissiveTexture": {
        "index": 0
      },
      "name": "Material_0",
      "normalTexture": {
        "index": 2,
        "texCoord": 2
      },
      "occlusionTexture": {
        "index": 1,
        "texCoord": 1
      },
      "pbrMetallicRoughness": {
        "baseColorTexture": {
          "index": 0
        },
        "metallicFactor": 0.0,
        "metallicRoughnessTexture": {
          "index": 1,
          "texCoord": 1
        }
      }
    }
  ],
  "meshes": [
    {
      "name": "Object_0",
      "primitives": [
        {
          "attributes": {
            "NORMAL": 1,
            "POSITION": 0,
            "TANGENT": 2,
            "TEXCOORD_0": 3,
            "TEXCOORD_1": 4,
            "TEXCOORD_2": 5
          },
          "indices": 6,
          "material": 0,
          "mode": 4
        }
      ]
    },
    {
      "name": "Object_1",
      "primitives": [
        {
          "attributes": {
            "NORMAL": 8,
            "POSITION": 7,
            "TANGENT": 9,
            "TEXCOORD_0": 10,
            "TEXCOORD_1": 11,
            "TEXCOORD_2": 12
          },
          "indices": 13,
          "material": 0,
          "mode": 4
        }
      ]
    },
    {
      "name": "Object_2",
      "primitives": [
        {
          "attributes": {
            "NORMAL": 15,
            "POSITION": 14,
            "TANGENT": 16,
            "TEXCOORD_0": 17,
            "TEXCOORD_1": 18,
            "TEXCOORD_2": 19
          },
          "indices": 20,
          "material": 0,
          "mode": 4
        }
      ]
    },
    {
      "name": "Object_3",
      "primitives": [
        {
          "attributes": {
            "NORMAL": 22,
            "POSITION": 21,
            "TANGENT": 23,
            "TEXCOORD_0": 24,
            "TEXCOORD_1": 25,
            "TEXCOORD_2": 26
          },
          "indices": 27,
          "material": 0,
          "mode": 4
        }
      ]
    }
  ],
  "nodes": [
    {
      "children": [
        1
      ],
      "matrix": [
        1.0,
        0.0,
        0.0,
        0.0,
        0.0,
        2.220446049250313e-16,
        -1.0,
        0.0,
        0.0,
        1.0,
        2.220446049250313e-16,
        0.0,
        0.0,
        0.0,
        0.0,
        1.0
      ],
      "name": "Sketchfab_model"
    },
    {
      "children": [
        2
      ],
      "name": "root"
    },
    {
      "children": [
        3
      ],
      "matrix": [
        1.0,
        0.0,
        0.0,
        0.0,
        0.0,
        2.220446049250313e-16,
        1.0,
        0.0,
        0.0,
        -1.0,
        2.220446049250313e-16,
        0.0,
        0.0,
        0.0,
        0.0,
        1.0
      ],
      "name": "GLTF_SceneRootNode"
    },
    {
      "children": [
        4,
        5,
        6,
        7
      ],
      "matrix": [
        0.9760977114170171,
        -0.0115681596217428,
        0.21702404348234658,
        0.0,
        0.015934317998504394,
        0.9997041086406291,
        -0.018379137002802536,
        0.0,
        -0.2167472151525461,
        0.021397963688424327,
        0.9759932232723774,
        0.0,
        0.0,
        0.6234139204025269,
        0.21690471470355988,
        1.0
      ],
      "name": "Mesh_0_0"
    },
    {
      "mesh": 0,
      "name": "Object_4"
    },
    {
      "mesh": 1,
      "name": "Object_5"
    },
    {
      "mesh": 2,
      "name": "Object_6"
    },
    {
      "mesh": 3,
      "name": "Object_7"
    }
  ],
  "samplers": [
    {
      "magFilter": 9729,
      "minFilter": 9987,
      "wrapS": 10497,
      "wrapT": 10497
    }
  ],
  "scene": 0,
  "scenes": [
    {
      "name": "Sketchfab_Scene",
      "nodes": [
        0
      ]
    }
  ],
  "textures": [
    {
      "sampler": 0,
      "source": 0
    },
    {
      "sampler": 0,
      "source": 1
    },
    {
      "sampler": 0,
      "source": 2
    }
  ]
}
